<?xml version="1.0" encoding="UTF-8"?><svg xmlns="http://www.w3.org/2000/svg" xmlns:xlink="http://www.w3.org/1999/xlink" fill-opacity="1" color-rendering="auto" color-interpolation="auto" text-rendering="auto" stroke="black" stroke-linecap="square" width="1096" stroke-miterlimit="10" shape-rendering="auto" stroke-opacity="1" fill="black" stroke-dasharray="none" font-weight="normal" stroke-width="1" height="468" font-family="'Dialog'" font-style="normal" stroke-linejoin="miter" font-size="12px" stroke-dashoffset="0" image-rendering="auto">
  <!--Generated by ySVG 2.5-->
  <defs id="genericDefs"/>
  <g>
    <defs id="defs1">
      <linearGradient x1="341" gradientUnits="userSpaceOnUse" x2="359.1382" y1="292" y2="332.6704" id="linearGradient1" spreadMethod="pad">
        <stop stop-opacity="0.8627" stop-color="rgb(255,255,255)" offset="0%"/>
        <stop stop-opacity="0.1255" stop-color="rgb(255,255,255)" offset="100%"/>
      </linearGradient>
      <linearGradient x1="341" gradientUnits="userSpaceOnUse" x2="359.1382" y1="128" y2="168.6704" id="linearGradient2" spreadMethod="pad">
        <stop stop-opacity="0.8627" stop-color="rgb(255,255,255)" offset="0%"/>
        <stop stop-opacity="0.1255" stop-color="rgb(255,255,255)" offset="100%"/>
      </linearGradient>
      <linearGradient x1="615" gradientUnits="userSpaceOnUse" x2="630.3134" y1="128" y2="171.5454" id="linearGradient3" spreadMethod="pad">
        <stop stop-opacity="0.8627" stop-color="rgb(255,255,255)" offset="0%"/>
        <stop stop-opacity="0.1255" stop-color="rgb(255,255,255)" offset="100%"/>
      </linearGradient>
      <linearGradient x1="645" gradientUnits="userSpaceOnUse" x2="663.1382" y1="292" y2="332.6704" id="linearGradient4" spreadMethod="pad">
        <stop stop-opacity="0.8627" stop-color="rgb(255,255,255)" offset="0%"/>
        <stop stop-opacity="0.1255" stop-color="rgb(255,255,255)" offset="100%"/>
      </linearGradient>
      <linearGradient x1="341" gradientUnits="userSpaceOnUse" x2="359.1382" y1="456" y2="496.6704" id="linearGradient5" spreadMethod="pad">
        <stop stop-opacity="0.8627" stop-color="rgb(255,255,255)" offset="0%"/>
        <stop stop-opacity="0.1255" stop-color="rgb(255,255,255)" offset="100%"/>
      </linearGradient>
      <linearGradient x1="615" gradientUnits="userSpaceOnUse" x2="633.1382" y1="456" y2="496.6704" id="linearGradient6" spreadMethod="pad">
        <stop stop-opacity="0.8627" stop-color="rgb(255,255,255)" offset="0%"/>
        <stop stop-opacity="0.1255" stop-color="rgb(255,255,255)" offset="100%"/>
      </linearGradient>
      <linearGradient x1="889" gradientUnits="userSpaceOnUse" x2="907.1382" y1="456" y2="496.6704" id="linearGradient7" spreadMethod="pad">
        <stop stop-opacity="0.8627" stop-color="rgb(255,255,255)" offset="0%"/>
        <stop stop-opacity="0.1255" stop-color="rgb(255,255,255)" offset="100%"/>
      </linearGradient>
      <linearGradient x1="889" gradientUnits="userSpaceOnUse" x2="907.1382" y1="292" y2="332.6704" id="linearGradient8" spreadMethod="pad">
        <stop stop-opacity="0.8627" stop-color="rgb(255,255,255)" offset="0%"/>
        <stop stop-opacity="0.1255" stop-color="rgb(255,255,255)" offset="100%"/>
      </linearGradient>
      <linearGradient x1="67" gradientUnits="userSpaceOnUse" x2="85.1382" y1="292" y2="332.6704" id="linearGradient9" spreadMethod="pad">
        <stop stop-opacity="0.8627" stop-color="rgb(255,255,255)" offset="0%"/>
        <stop stop-opacity="0.1255" stop-color="rgb(255,255,255)" offset="100%"/>
      </linearGradient>
      <clipPath clipPathUnits="userSpaceOnUse" id="clipPath1">
        <path d="M0 0 L1096 0 L1096 468 L0 468 L0 0 Z"/>
      </clipPath>
      <clipPath clipPathUnits="userSpaceOnUse" id="clipPath2">
        <path d="M52 74 L1148 74 L1148 542 L52 542 L52 74 Z"/>
      </clipPath>
    </defs>
    <g fill="white" text-rendering="geometricPrecision" shape-rendering="geometricPrecision" transform="translate(-52,-74)" stroke="white">
      <rect x="52" width="1096" height="468" y="74" clip-path="url(#clipPath2)" stroke="none"/>
    </g>
    <g fill="white" text-rendering="geometricPrecision" shape-rendering="geometricPrecision" transform="matrix(1,0,0,1,-52,-74)" stroke="white">
      <rect x="341" y="292" clip-path="url(#clipPath2)" width="155" rx="1.5" ry="1.5" height="62" stroke="none"/>
    </g>
    <g text-rendering="geometricPrecision" stroke-miterlimit="1.45" shape-rendering="geometricPrecision" transform="matrix(1,0,0,1,-52,-74)" stroke-linecap="butt">
      <rect x="341" y="292" clip-path="url(#clipPath2)" fill="none" width="155" rx="1.5" ry="1.5" height="62"/>
    </g>
    <g fill="url(#linearGradient1)" text-rendering="geometricPrecision" shape-rendering="geometricPrecision" transform="matrix(1,0,0,1,-52,-74)" stroke="url(#linearGradient1)">
      <path d="M341.75 295 Q341.75 292.75 344 292.75 L438.75 292.75 Q441 292.75 441 295 Q441 297.25 393.625 319.05 Q346.25 340.85 344 340.85 Q341.75 340.85 341.75 338.6 Z" stroke="none" clip-path="url(#clipPath2)"/>
    </g>
    <g font-size="15px" stroke-linecap="butt" transform="matrix(1,0,0,1,-52,-74)" text-rendering="geometricPrecision" font-family="sans-serif" shape-rendering="geometricPrecision" stroke-miterlimit="1.45">
      <text x="358.0459" xml:space="preserve" y="328.8923" clip-path="url(#clipPath2)" stroke="none">ModelingQuestion</text>
    </g>
    <g fill="white" text-rendering="geometricPrecision" shape-rendering="geometricPrecision" transform="matrix(1,0,0,1,-52,-74)" stroke="white">
      <rect x="341" y="128" clip-path="url(#clipPath2)" width="155" rx="1.5" ry="1.5" height="62" stroke="none"/>
    </g>
    <g text-rendering="geometricPrecision" stroke-miterlimit="1.45" shape-rendering="geometricPrecision" transform="matrix(1,0,0,1,-52,-74)" stroke-linecap="butt">
      <rect x="341" y="128" clip-path="url(#clipPath2)" fill="none" width="155" rx="1.5" ry="1.5" height="62"/>
    </g>
    <g fill="url(#linearGradient2)" text-rendering="geometricPrecision" shape-rendering="geometricPrecision" transform="matrix(1,0,0,1,-52,-74)" stroke="url(#linearGradient2)">
      <path d="M341.75 131 Q341.75 128.75 344 128.75 L438.75 128.75 Q441 128.75 441 131 Q441 133.25 393.625 155.05 Q346.25 176.85 344 176.85 Q341.75 176.85 341.75 174.6 Z" stroke="none" clip-path="url(#clipPath2)"/>
    </g>
    <g font-size="15px" stroke-linecap="butt" transform="matrix(1,0,0,1,-52,-74)" text-rendering="geometricPrecision" font-family="sans-serif" shape-rendering="geometricPrecision" stroke-miterlimit="1.45">
      <text x="379.3081" xml:space="preserve" y="164.8923" clip-path="url(#clipPath2)" stroke="none">Intervention</text>
    </g>
    <g fill="white" text-rendering="geometricPrecision" shape-rendering="geometricPrecision" transform="matrix(1,0,0,1,-52,-74)" stroke="white">
      <rect x="615" y="128" clip-path="url(#clipPath2)" width="193" rx="1.5" ry="1.5" height="62" stroke="none"/>
    </g>
    <g text-rendering="geometricPrecision" stroke-miterlimit="1.45" shape-rendering="geometricPrecision" transform="matrix(1,0,0,1,-52,-74)" stroke-linecap="butt">
      <rect x="615" y="128" clip-path="url(#clipPath2)" fill="none" width="193" rx="1.5" ry="1.5" height="62"/>
    </g>
    <g fill="url(#linearGradient3)" text-rendering="geometricPrecision" shape-rendering="geometricPrecision" transform="matrix(1,0,0,1,-52,-74)" stroke="url(#linearGradient3)">
      <path d="M615.75 131 Q615.75 128.75 618 128.75 L737.45 128.75 Q739.7 128.75 739.7 131 Q739.7 133.25 679.975 155.05 Q620.25 176.85 618 176.85 Q615.75 176.85 615.75 174.6 Z" stroke="none" clip-path="url(#clipPath2)"/>
    </g>
    <g font-size="15px" stroke-linecap="butt" transform="matrix(1,0,0,1,-52,-74)" text-rendering="geometricPrecision" font-family="sans-serif" shape-rendering="geometricPrecision" stroke-miterlimit="1.45">
      <text x="629.7837" xml:space="preserve" y="164.8923" clip-path="url(#clipPath2)" stroke="none">InterventionSpecification</text>
    </g>
    <g fill="white" text-rendering="geometricPrecision" shape-rendering="geometricPrecision" transform="matrix(1,0,0,1,-52,-74)" stroke="white">
      <rect x="645" y="292" clip-path="url(#clipPath2)" width="155" rx="1.5" ry="1.5" height="62" stroke="none"/>
    </g>
    <g text-rendering="geometricPrecision" stroke-miterlimit="1.45" shape-rendering="geometricPrecision" transform="matrix(1,0,0,1,-52,-74)" stroke-linecap="butt">
      <rect x="645" y="292" clip-path="url(#clipPath2)" fill="none" width="155" rx="1.5" ry="1.5" height="62"/>
    </g>
    <g fill="url(#linearGradient4)" text-rendering="geometricPrecision" shape-rendering="geometricPrecision" transform="matrix(1,0,0,1,-52,-74)" stroke="url(#linearGradient4)">
      <path d="M645.75 295 Q645.75 292.75 648 292.75 L742.75 292.75 Q745 292.75 745 295 Q745 297.25 697.625 319.05 Q650.25 340.85 648 340.85 Q645.75 340.85 645.75 338.6 Z" stroke="none" clip-path="url(#clipPath2)"/>
    </g>
    <g font-size="15px" stroke-linecap="butt" transform="matrix(1,0,0,1,-52,-74)" text-rendering="geometricPrecision" font-family="sans-serif" shape-rendering="geometricPrecision" stroke-miterlimit="1.45">
      <text x="664.1333" xml:space="preserve" y="328.8923" clip-path="url(#clipPath2)" stroke="none">DataSpecification</text>
    </g>
    <g fill="white" text-rendering="geometricPrecision" shape-rendering="geometricPrecision" transform="matrix(1,0,0,1,-52,-74)" stroke="white">
      <rect x="341" y="456" clip-path="url(#clipPath2)" width="155" rx="1.5" ry="1.5" height="62" stroke="none"/>
    </g>
    <g text-rendering="geometricPrecision" stroke-miterlimit="1.45" shape-rendering="geometricPrecision" transform="matrix(1,0,0,1,-52,-74)" stroke-linecap="butt">
      <rect x="341" y="456" clip-path="url(#clipPath2)" fill="none" width="155" rx="1.5" ry="1.5" height="62"/>
    </g>
    <g fill="url(#linearGradient5)" text-rendering="geometricPrecision" shape-rendering="geometricPrecision" transform="matrix(1,0,0,1,-52,-74)" stroke="url(#linearGradient5)">
      <path d="M341.75 459 Q341.75 456.75 344 456.75 L438.75 456.75 Q441 456.75 441 459 Q441 461.25 393.625 483.05 Q346.25 504.85 344 504.85 Q341.75 504.85 341.75 502.6 Z" stroke="none" clip-path="url(#clipPath2)"/>
    </g>
    <g font-size="15px" stroke-linecap="butt" transform="matrix(1,0,0,1,-52,-74)" text-rendering="geometricPrecision" font-family="sans-serif" shape-rendering="geometricPrecision" stroke-miterlimit="1.45">
      <text x="342.6248" xml:space="preserve" y="492.8923" clip-path="url(#clipPath2)" stroke="none">EnsembleSpecification</text>
    </g>
    <g fill="white" text-rendering="geometricPrecision" shape-rendering="geometricPrecision" transform="matrix(1,0,0,1,-52,-74)" stroke="white">
      <rect x="615" y="456" clip-path="url(#clipPath2)" width="155" rx="1.5" ry="1.5" height="62" stroke="none"/>
    </g>
    <g text-rendering="geometricPrecision" stroke-miterlimit="1.45" shape-rendering="geometricPrecision" transform="matrix(1,0,0,1,-52,-74)" stroke-linecap="butt">
      <rect x="615" y="456" clip-path="url(#clipPath2)" fill="none" width="155" rx="1.5" ry="1.5" height="62"/>
    </g>
    <g fill="url(#linearGradient6)" text-rendering="geometricPrecision" shape-rendering="geometricPrecision" transform="matrix(1,0,0,1,-52,-74)" stroke="url(#linearGradient6)">
      <path d="M615.75 459 Q615.75 456.75 618 456.75 L712.75 456.75 Q715 456.75 715 459 Q715 461.25 667.625 483.05 Q620.25 504.85 618 504.85 Q615.75 504.85 615.75 502.6 Z" stroke="none" clip-path="url(#clipPath2)"/>
    </g>
    <g font-size="15px" stroke-linecap="butt" transform="matrix(1,0,0,1,-52,-74)" text-rendering="geometricPrecision" font-family="sans-serif" shape-rendering="geometricPrecision" stroke-miterlimit="1.45">
      <text x="659.1492" xml:space="preserve" y="492.8923" clip-path="url(#clipPath2)" stroke="none">Ensemble</text>
    </g>
    <g fill="white" text-rendering="geometricPrecision" shape-rendering="geometricPrecision" transform="matrix(1,0,0,1,-52,-74)" stroke="white">
      <rect x="889" y="456" clip-path="url(#clipPath2)" width="155" rx="1.5" ry="1.5" height="62" stroke="none"/>
    </g>
    <g text-rendering="geometricPrecision" stroke-miterlimit="1.45" shape-rendering="geometricPrecision" transform="matrix(1,0,0,1,-52,-74)" stroke-linecap="butt">
      <rect x="889" y="456" clip-path="url(#clipPath2)" fill="none" width="155" rx="1.5" ry="1.5" height="62"/>
    </g>
    <g fill="url(#linearGradient7)" text-rendering="geometricPrecision" shape-rendering="geometricPrecision" transform="matrix(1,0,0,1,-52,-74)" stroke="url(#linearGradient7)">
      <path d="M889.75 459 Q889.75 456.75 892 456.75 L986.75 456.75 Q989 456.75 989 459 Q989 461.25 941.625 483.05 Q894.25 504.85 892 504.85 Q889.75 504.85 889.75 502.6 Z" stroke="none" clip-path="url(#clipPath2)"/>
    </g>
    <g font-size="15px" stroke-linecap="butt" transform="matrix(1,0,0,1,-52,-74)" text-rendering="geometricPrecision" font-family="sans-serif" shape-rendering="geometricPrecision" stroke-miterlimit="1.45">
      <text x="929.3955" xml:space="preserve" y="492.8923" clip-path="url(#clipPath2)" stroke="none">Realization</text>
    </g>
    <g fill="white" text-rendering="geometricPrecision" shape-rendering="geometricPrecision" transform="matrix(1,0,0,1,-52,-74)" stroke="white">
      <rect x="889" y="292" clip-path="url(#clipPath2)" width="155" rx="1.5" ry="1.5" height="62" stroke="none"/>
    </g>
    <g text-rendering="geometricPrecision" stroke-miterlimit="1.45" shape-rendering="geometricPrecision" transform="matrix(1,0,0,1,-52,-74)" stroke-linecap="butt">
      <rect x="889" y="292" clip-path="url(#clipPath2)" fill="none" width="155" rx="1.5" ry="1.5" height="62"/>
    </g>
    <g fill="url(#linearGradient8)" text-rendering="geometricPrecision" shape-rendering="geometricPrecision" transform="matrix(1,0,0,1,-52,-74)" stroke="url(#linearGradient8)">
      <path d="M889.75 295 Q889.75 292.75 892 292.75 L986.75 292.75 Q989 292.75 989 295 Q989 297.25 941.625 319.05 Q894.25 340.85 892 340.85 Q889.75 340.85 889.75 338.6 Z" stroke="none" clip-path="url(#clipPath2)"/>
    </g>
    <g font-size="15px" stroke-linecap="butt" transform="matrix(1,0,0,1,-52,-74)" text-rendering="geometricPrecision" font-family="sans-serif" shape-rendering="geometricPrecision" stroke-miterlimit="1.45">
      <text x="904.4016" xml:space="preserve" y="328.8923" clip-path="url(#clipPath2)" stroke="none">WorkflowTemplate</text>
    </g>
    <g fill="white" text-rendering="geometricPrecision" shape-rendering="geometricPrecision" transform="matrix(1,0,0,1,-52,-74)" stroke="white">
      <rect x="67" y="292" clip-path="url(#clipPath2)" width="155" rx="1.5" ry="1.5" height="62" stroke="none"/>
    </g>
    <g text-rendering="geometricPrecision" stroke-miterlimit="1.45" shape-rendering="geometricPrecision" transform="matrix(1,0,0,1,-52,-74)" stroke-linecap="butt">
      <rect x="67" y="292" clip-path="url(#clipPath2)" fill="none" width="155" rx="1.5" ry="1.5" height="62"/>
    </g>
    <g fill="url(#linearGradient9)" text-rendering="geometricPrecision" shape-rendering="geometricPrecision" transform="matrix(1,0,0,1,-52,-74)" stroke="url(#linearGradient9)">
      <path d="M67.75 295 Q67.75 292.75 70 292.75 L164.75 292.75 Q167 292.75 167 295 Q167 297.25 119.625 319.05 Q72.25 340.85 70 340.85 Q67.75 340.85 67.75 338.6 Z" stroke="none" clip-path="url(#clipPath2)"/>
    </g>
    <g font-size="15px" stroke-linecap="butt" transform="matrix(1,0,0,1,-52,-74)" text-rendering="geometricPrecision" font-family="sans-serif" shape-rendering="geometricPrecision" stroke-miterlimit="1.45">
      <text x="120.7329" xml:space="preserve" y="328.8923" clip-path="url(#clipPath2)" stroke="none">Region</text>
    </g>
    <g text-rendering="geometricPrecision" stroke-miterlimit="1.45" shape-rendering="geometricPrecision" transform="matrix(1,0,0,1,-52,-74)" stroke-linecap="butt">
      <path fill="none" d="M418.5 291.9697 L418.5 198.0025" clip-path="url(#clipPath2)"/>
    </g>
    <g text-rendering="geometricPrecision" stroke-miterlimit="1.45" shape-rendering="geometricPrecision" transform="matrix(1,0,0,1,-52,-74)" stroke-linecap="butt">
      <path d="M418.5 190.0025 L413.5 202.0025 L418.5 199.0025 L423.5 202.0025 Z" stroke="none" clip-path="url(#clipPath2)"/>
      <text x="407.4727" xml:space="preserve" y="245.7139" clip-path="url(#clipPath2)" font-family="sans-serif" stroke="none">hasIntervention</text>
      <path fill="none" d="M496.0062 159 L606.9855 159" clip-path="url(#clipPath2)"/>
      <path d="M614.9855 159 L602.9855 154 L605.9855 159 L602.9855 164 Z" clip-path="url(#clipPath2)" stroke="none"/>
      <text x="488.9531" xml:space="preserve" y="103.7139" clip-path="url(#clipPath2)" font-family="sans-serif" stroke="none">hasInterventionSpecification</text>
      <path fill="none" d="M473.9025 291.9897 L649.1512 193.8983" clip-path="url(#clipPath2)"/>
      <path d="M656.1321 189.9909 L643.2188 191.4889 L648.2787 194.3867 L648.103 200.215 Z" clip-path="url(#clipPath2)" stroke="none"/>
      <text x="540.8099" xml:space="preserve" y="251.6277" clip-path="url(#clipPath2)" font-family="sans-serif" stroke="none">hasInterventionSpecification</text>
      <path fill="none" d="M496.0215 323 L637.0074 323" clip-path="url(#clipPath2)"/>
      <path d="M645.0074 323 L633.0074 318 L636.0074 323 L633.0074 328 Z" clip-path="url(#clipPath2)" stroke="none"/>
      <text x="512.6328" xml:space="preserve" y="319.7139" clip-path="url(#clipPath2)" font-family="sans-serif" stroke="none">hasDataSpecification</text>
      <path fill="none" d="M418.5 354.0303 L418.5 447.9975" clip-path="url(#clipPath2)"/>
      <path d="M418.5 455.9975 L423.5 443.9975 L418.5 446.9975 L413.5 443.9975 Z" clip-path="url(#clipPath2)" stroke="none"/>
      <text x="318.126" xml:space="preserve" y="409.7139" clip-path="url(#clipPath2)" font-family="sans-serif" stroke="none">hasEnsembleSpecification</text>
      <path fill="none" d="M470.3098 354.0103 L633.8582 451.9005" clip-path="url(#clipPath2)"/>
      <path d="M640.7225 456.0091 L632.9938 445.556 L633.0001 451.3869 L627.8581 454.1365 Z" clip-path="url(#clipPath2)" stroke="none"/>
      <text x="476.911" xml:space="preserve" y="419.398" clip-path="url(#clipPath2)" font-family="sans-serif" stroke="none">hasEnsemble</text>
      <path fill="none" d="M615.0027 487 L503.9785 487" clip-path="url(#clipPath2)"/>
      <path d="M495.9785 487 L507.9785 492 L504.9785 487 L507.9785 482 Z" clip-path="url(#clipPath2)" stroke="none"/>
      <text x="496.8184" xml:space="preserve" y="521.7139" clip-path="url(#clipPath2)" font-family="sans-serif" stroke="none">prov:wasDerivedFrom</text>
      <path fill="none" d="M769.9973 487 L881.0215 487" clip-path="url(#clipPath2)"/>
      <path d="M889.0215 487 L877.0215 482 L880.0215 487 L877.0215 492 Z" clip-path="url(#clipPath2)" stroke="none"/>
      <text x="790.1426" xml:space="preserve" y="521.7139" clip-path="url(#clipPath2)" font-family="sans-serif" stroke="none">hasRealization</text>
      <path fill="none" d="M489.9115 354.0105 L582 394 L966.5 394 L966.5 362.0278" clip-path="url(#clipPath2)"/>
      <path d="M966.5 354.0278 L961.5 366.0278 L966.5 363.0278 L971.5 366.0278 Z" clip-path="url(#clipPath2)" stroke="none"/>
      <text x="657.6475" xml:space="preserve" y="389.7139" clip-path="url(#clipPath2)" font-family="sans-serif" stroke="none">hasWorkflowTemplate</text>
      <path fill="none" d="M1018 455.9963 L1018 362.0269" clip-path="url(#clipPath2)"/>
      <path d="M1018 354.0269 L1013 366.0269 L1018 363.0269 L1023 366.0269 Z" clip-path="url(#clipPath2)" stroke="none"/>
      <text x="965.2979" xml:space="preserve" y="409.7139" clip-path="url(#clipPath2)" font-family="sans-serif" stroke="none">opmw:correspondsToTemplate</text>
      <path fill="none" d="M341.0027 323 L229.9785 323" clip-path="url(#clipPath2)"/>
      <path d="M221.9785 323 L233.9785 328 L230.9785 323 L233.9785 318 Z" clip-path="url(#clipPath2)" stroke="none"/>
      <text x="252.8125" xml:space="preserve" y="297.7139" clip-path="url(#clipPath2)" font-family="sans-serif" stroke="none">hasRegion</text>
    </g>
  </g>
</svg>
