<?xml version="1.0" encoding="UTF-8"?><svg xmlns="http://www.w3.org/2000/svg" xmlns:xlink="http://www.w3.org/1999/xlink" fill-opacity="1" color-rendering="auto" color-interpolation="auto" text-rendering="auto" stroke="black" stroke-linecap="square" width="1248" stroke-miterlimit="10" shape-rendering="auto" stroke-opacity="1" fill="black" stroke-dasharray="none" font-weight="normal" stroke-width="1" height="846" font-family="'Dialog'" font-style="normal" stroke-linejoin="miter" font-size="12px" stroke-dashoffset="0" image-rendering="auto">
  <!--Generated by ySVG 2.5-->
  <defs id="genericDefs"/>
  <g>
    <defs id="defs1">
      <linearGradient x1="183" gradientUnits="userSpaceOnUse" x2="201.1382" y1="272" y2="312.6704" id="linearGradient1" spreadMethod="pad">
        <stop stop-opacity="0.8627" stop-color="rgb(255,255,255)" offset="0%"/>
        <stop stop-opacity="0.1255" stop-color="rgb(255,255,255)" offset="100%"/>
      </linearGradient>
      <linearGradient x1="481" gradientUnits="userSpaceOnUse" x2="499.1382" y1="210" y2="250.6704" id="linearGradient2" spreadMethod="pad">
        <stop stop-opacity="0.8627" stop-color="rgb(255,255,255)" offset="0%"/>
        <stop stop-opacity="0.1255" stop-color="rgb(255,255,255)" offset="100%"/>
      </linearGradient>
      <linearGradient x1="481" gradientUnits="userSpaceOnUse" x2="499.1382" y1="345" y2="385.6704" id="linearGradient3" spreadMethod="pad">
        <stop stop-opacity="0.8627" stop-color="rgb(255,255,255)" offset="0%"/>
        <stop stop-opacity="0.1255" stop-color="rgb(255,255,255)" offset="100%"/>
      </linearGradient>
      <linearGradient x1="697.3333" gradientUnits="userSpaceOnUse" x2="706.4194" y1="226.5" y2="252.1965" id="linearGradient4" spreadMethod="pad">
        <stop stop-opacity="0.8627" stop-color="rgb(255,255,255)" offset="0%"/>
        <stop stop-opacity="0.1255" stop-color="rgb(255,255,255)" offset="100%"/>
      </linearGradient>
      <linearGradient x1="183" gradientUnits="userSpaceOnUse" x2="193.1977" y1="70" y2="103.0752" id="linearGradient5" spreadMethod="pad">
        <stop stop-opacity="0.8627" stop-color="rgb(255,255,255)" offset="0%"/>
        <stop stop-opacity="0.1255" stop-color="rgb(255,255,255)" offset="100%"/>
      </linearGradient>
      <linearGradient x1="-52" gradientUnits="userSpaceOnUse" x2="-43.3669" y1="487.0833" y2="521.2591" id="linearGradient6" spreadMethod="pad">
        <stop stop-opacity="0.8627" stop-color="rgb(255,255,255)" offset="0%"/>
        <stop stop-opacity="0.1255" stop-color="rgb(255,255,255)" offset="100%"/>
      </linearGradient>
      <linearGradient x1="-52" gradientUnits="userSpaceOnUse" x2="-43.3669" y1="737.3333" y2="771.509" id="linearGradient7" spreadMethod="pad">
        <stop stop-opacity="0.8627" stop-color="rgb(255,255,255)" offset="0%"/>
        <stop stop-opacity="0.1255" stop-color="rgb(255,255,255)" offset="100%"/>
      </linearGradient>
      <clipPath clipPathUnits="userSpaceOnUse" id="clipPath1">
        <path d="M0 0 L1248 0 L1248 846 L0 846 L0 0 Z"/>
      </clipPath>
      <clipPath clipPathUnits="userSpaceOnUse" id="clipPath2">
        <path d="M-200 -40 L1048 -40 L1048 806 L-200 806 L-200 -40 Z"/>
      </clipPath>
    </defs>
    <g fill="white" text-rendering="geometricPrecision" shape-rendering="geometricPrecision" transform="translate(200,40)" stroke="white">
      <rect x="-200" width="1248" height="846" y="-40" clip-path="url(#clipPath2)" stroke="none"/>
    </g>
    <g fill="white" text-rendering="geometricPrecision" shape-rendering="geometricPrecision" transform="matrix(1,0,0,1,200,40)" stroke="white">
      <rect x="409.75" width="195.25" height="102.6667" y="679" clip-path="url(#clipPath2)" stroke="none"/>
    </g>
    <g text-rendering="geometricPrecision" stroke-miterlimit="1.45" stroke-dasharray="6,2" shape-rendering="geometricPrecision" transform="matrix(1,0,0,1,200,40)" stroke-linecap="butt">
      <rect fill="none" x="409.75" width="195.25" height="102.6667" y="679" clip-path="url(#clipPath2)"/>
    </g>
    <g fill="white" text-rendering="geometricPrecision" shape-rendering="geometricPrecision" transform="matrix(1,0,0,1,200,40)" stroke="white">
      <rect x="409.75" width="195.25" height="115.3333" y="487.0833" clip-path="url(#clipPath2)" stroke="none"/>
    </g>
    <g text-rendering="geometricPrecision" stroke-miterlimit="1.45" stroke-dasharray="6,2" shape-rendering="geometricPrecision" transform="matrix(1,0,0,1,200,40)" stroke-linecap="butt">
      <rect fill="none" x="409.75" width="195.25" height="115.3333" y="487.0833" clip-path="url(#clipPath2)"/>
      <rect fill="none" x="495" width="462" height="115.3333" y="7.6667" clip-path="url(#clipPath2)"/>
    </g>
    <g fill="white" text-rendering="geometricPrecision" shape-rendering="geometricPrecision" transform="matrix(1,0,0,1,200,40)" stroke="white">
      <rect x="183" y="272" clip-path="url(#clipPath2)" width="155" rx="1.5" ry="1.5" height="62" stroke="none"/>
    </g>
    <g text-rendering="geometricPrecision" stroke-miterlimit="1.45" shape-rendering="geometricPrecision" transform="matrix(1,0,0,1,200,40)" stroke-linecap="butt">
      <rect x="183" y="272" clip-path="url(#clipPath2)" fill="none" width="155" rx="1.5" ry="1.5" height="62"/>
    </g>
    <g fill="url(#linearGradient1)" text-rendering="geometricPrecision" shape-rendering="geometricPrecision" transform="matrix(1,0,0,1,200,40)" stroke="url(#linearGradient1)">
      <path d="M183.75 275 Q183.75 272.75 186 272.75 L280.75 272.75 Q283 272.75 283 275 Q283 277.25 235.625 299.05 Q188.25 320.85 186 320.85 Q183.75 320.85 183.75 318.6 Z" stroke="none" clip-path="url(#clipPath2)"/>
    </g>
    <g font-size="15px" stroke-linecap="butt" transform="matrix(1,0,0,1,200,40)" text-rendering="geometricPrecision" font-family="sans-serif" shape-rendering="geometricPrecision" stroke-miterlimit="1.45">
      <text x="200.0459" xml:space="preserve" y="299.7041" clip-path="url(#clipPath2)" stroke="none">ModelingQuestion</text>
      <text x="241.7354" xml:space="preserve" y="318.0806" clip-path="url(#clipPath2)" stroke="none">&lt;Q1&gt;</text>
    </g>
    <g fill="rgb(153,204,255)" text-rendering="geometricPrecision" shape-rendering="geometricPrecision" transform="matrix(1,0,0,1,200,40)" stroke="rgb(153,204,255)">
      <rect x="-150" width="303" height="30" y="377" clip-path="url(#clipPath2)" stroke="none"/>
    </g>
    <g text-rendering="geometricPrecision" stroke-miterlimit="1.45" shape-rendering="geometricPrecision" transform="matrix(1,0,0,1,200,40)" stroke-linecap="butt">
      <rect fill="none" x="-150" width="303" height="30" y="377" clip-path="url(#clipPath2)"/>
      <text x="-144.1846" xml:space="preserve" y="396.7139" clip-path="url(#clipPath2)" font-family="sans-serif" stroke="none">"What caused the crops to fail in 2017 in South Sudan"</text>
    </g>
    <g fill="white" text-rendering="geometricPrecision" shape-rendering="geometricPrecision" transform="matrix(1,0,0,1,200,40)" stroke="white">
      <rect x="0" width="101" height="30" y="288" clip-path="url(#clipPath2)" stroke="none"/>
    </g>
    <g text-rendering="geometricPrecision" stroke-miterlimit="1.45" shape-rendering="geometricPrecision" transform="matrix(1,0,0,1,200,40)" stroke-linecap="butt">
      <rect fill="none" x="0" width="101" height="30" y="288" clip-path="url(#clipPath2)"/>
      <text x="31.4863" xml:space="preserve" y="300.3633" clip-path="url(#clipPath2)" font-family="sans-serif" stroke="none">Region</text>
      <text x="8.7959" xml:space="preserve" y="315.0645" clip-path="url(#clipPath2)" font-family="sans-serif" stroke="none">&lt;South Sudan&gt;</text>
    </g>
    <g fill="white" text-rendering="geometricPrecision" shape-rendering="geometricPrecision" transform="matrix(1,0,0,1,200,40)" stroke="white">
      <rect x="481" y="210" clip-path="url(#clipPath2)" width="155" rx="1.5" ry="1.5" height="62" stroke="none"/>
    </g>
    <g text-rendering="geometricPrecision" stroke-miterlimit="1.45" shape-rendering="geometricPrecision" transform="matrix(1,0,0,1,200,40)" stroke-linecap="butt">
      <rect x="481" y="210" clip-path="url(#clipPath2)" fill="none" width="155" rx="1.5" ry="1.5" height="62"/>
    </g>
    <g fill="url(#linearGradient2)" text-rendering="geometricPrecision" shape-rendering="geometricPrecision" transform="matrix(1,0,0,1,200,40)" stroke="url(#linearGradient2)">
      <path d="M481.75 213 Q481.75 210.75 484 210.75 L578.75 210.75 Q581 210.75 581 213 Q581 215.25 533.625 237.05 Q486.25 258.85 484 258.85 Q481.75 258.85 481.75 256.6 Z" stroke="none" clip-path="url(#clipPath2)"/>
    </g>
    <g font-size="15px" stroke-linecap="butt" transform="matrix(1,0,0,1,200,40)" text-rendering="geometricPrecision" font-family="sans-serif" shape-rendering="geometricPrecision" stroke-miterlimit="1.45">
      <text x="482.6248" xml:space="preserve" y="237.7041" clip-path="url(#clipPath2)" stroke="none">EnsembleSpecification</text>
      <text x="490.1248" xml:space="preserve" y="256.0806" clip-path="url(#clipPath2)" stroke="none"> &lt;Data Ensemble 1&gt;</text>
    </g>
    <g fill="white" text-rendering="geometricPrecision" shape-rendering="geometricPrecision" transform="matrix(1,0,0,1,200,40)" stroke="white">
      <rect x="508" width="101" height="30" y="78" clip-path="url(#clipPath2)" stroke="none"/>
    </g>
    <g text-rendering="geometricPrecision" stroke-miterlimit="1.45" shape-rendering="geometricPrecision" transform="matrix(1,0,0,1,200,40)" stroke-linecap="butt">
      <rect fill="none" x="508" width="101" height="30" y="78" clip-path="url(#clipPath2)"/>
      <text x="523.8125" xml:space="preserve" y="90.3633" clip-path="url(#clipPath2)" font-family="sans-serif" stroke="none">DataVariable</text>
      <text x="529.4873" xml:space="preserve" y="105.0645" clip-path="url(#clipPath2)" font-family="sans-serif" stroke="none">&lt;PrecFile&gt;</text>
    </g>
    <g fill="white" text-rendering="geometricPrecision" shape-rendering="geometricPrecision" transform="matrix(1,0,0,1,200,40)" stroke="white">
      <rect x="664" width="101" height="30" y="78" clip-path="url(#clipPath2)" stroke="none"/>
    </g>
    <g text-rendering="geometricPrecision" stroke-miterlimit="1.45" shape-rendering="geometricPrecision" transform="matrix(1,0,0,1,200,40)" stroke-linecap="butt">
      <rect fill="none" x="664" width="101" height="30" y="78" clip-path="url(#clipPath2)"/>
      <text x="702.1572" xml:space="preserve" y="90.3633" clip-path="url(#clipPath2)" font-family="sans-serif" stroke="none">Step</text>
      <text x="692.4922" xml:space="preserve" y="105.0645" clip-path="url(#clipPath2)" font-family="sans-serif" stroke="none">&lt;PIHM&gt;</text>
    </g>
    <g fill="white" text-rendering="geometricPrecision" shape-rendering="geometricPrecision" transform="matrix(1,0,0,1,200,40)" stroke="white">
      <rect x="827" width="101" height="30" y="78" clip-path="url(#clipPath2)" stroke="none"/>
    </g>
    <g text-rendering="geometricPrecision" stroke-miterlimit="1.45" shape-rendering="geometricPrecision" transform="matrix(1,0,0,1,200,40)" stroke-linecap="butt">
      <rect fill="none" x="827" width="101" height="30" y="78" clip-path="url(#clipPath2)"/>
      <text x="842.8125" xml:space="preserve" y="90.3633" clip-path="url(#clipPath2)" font-family="sans-serif" stroke="none">DataVariable</text>
      <text x="846.8203" xml:space="preserve" y="105.0645" clip-path="url(#clipPath2)" font-family="sans-serif" stroke="none">&lt;RiverOut&gt;</text>
    </g>
    <g fill="white" text-rendering="geometricPrecision" shape-rendering="geometricPrecision" transform="matrix(1,0,0,1,200,40)" stroke="white">
      <rect x="481" y="345" clip-path="url(#clipPath2)" width="155" rx="1.5" ry="1.5" height="62" stroke="none"/>
    </g>
    <g text-rendering="geometricPrecision" stroke-miterlimit="1.45" shape-rendering="geometricPrecision" transform="matrix(1,0,0,1,200,40)" stroke-linecap="butt">
      <rect x="481" y="345" clip-path="url(#clipPath2)" fill="none" width="155" rx="1.5" ry="1.5" height="62"/>
    </g>
    <g fill="url(#linearGradient3)" text-rendering="geometricPrecision" shape-rendering="geometricPrecision" transform="matrix(1,0,0,1,200,40)" stroke="url(#linearGradient3)">
      <path d="M481.75 348 Q481.75 345.75 484 345.75 L578.75 345.75 Q581 345.75 581 348 Q581 350.25 533.625 372.05 Q486.25 393.85 484 393.85 Q481.75 393.85 481.75 391.6 Z" stroke="none" clip-path="url(#clipPath2)"/>
    </g>
    <g font-size="15px" stroke-linecap="butt" transform="matrix(1,0,0,1,200,40)" text-rendering="geometricPrecision" font-family="sans-serif" shape-rendering="geometricPrecision" stroke-miterlimit="1.45">
      <text x="525.1492" xml:space="preserve" y="372.7041" clip-path="url(#clipPath2)" stroke="none">Ensemble</text>
      <text x="540.5667" xml:space="preserve" y="391.0806" clip-path="url(#clipPath2)" stroke="none">&lt;E1&gt;</text>
    </g>
    <g fill="white" text-rendering="geometricPrecision" shape-rendering="geometricPrecision" transform="matrix(1,0,0,1,200,40)" stroke="white">
      <rect x="636" width="148" height="30" y="293.5" clip-path="url(#clipPath2)" stroke="none"/>
    </g>
    <g text-rendering="geometricPrecision" stroke-miterlimit="1.45" shape-rendering="geometricPrecision" transform="matrix(1,0,0,1,200,40)" stroke-linecap="butt">
      <rect fill="none" x="636" width="148" height="30" y="293.5" clip-path="url(#clipPath2)"/>
      <text x="677.6592" xml:space="preserve" y="305.8633" clip-path="url(#clipPath2)" font-family="sans-serif" stroke="none">prov:Activity</text>
      <text x="656.9697" xml:space="preserve" y="320.5645" clip-path="url(#clipPath2)" font-family="sans-serif" stroke="none">EnsembleExecution</text>
    </g>
    <g fill="white" text-rendering="geometricPrecision" shape-rendering="geometricPrecision" transform="matrix(1,0,0,1,200,40)" stroke="white">
      <rect x="697.3333" y="226.5" clip-path="url(#clipPath2)" width="106" rx="1.5" ry="1.5" height="37" stroke="none"/>
    </g>
    <g text-rendering="geometricPrecision" stroke-miterlimit="1.45" shape-rendering="geometricPrecision" transform="matrix(1,0,0,1,200,40)" stroke-linecap="butt">
      <rect x="697.3333" y="226.5" clip-path="url(#clipPath2)" fill="none" width="106" rx="1.5" ry="1.5" height="37"/>
    </g>
    <g fill="url(#linearGradient4)" text-rendering="geometricPrecision" shape-rendering="geometricPrecision" transform="matrix(1,0,0,1,200,40)" stroke="url(#linearGradient4)">
      <path d="M698.0833 229.5 Q698.0833 227.25 700.3333 227.25 L763.2333 227.25 Q765.4833 227.25 765.4833 229.5 Q765.4833 231.75 734.0333 243.55 Q702.5833 255.35 700.3333 255.35 Q698.0833 255.35 698.0833 253.1 Z" stroke="none" clip-path="url(#clipPath2)"/>
    </g>
    <g font-size="15px" stroke-linecap="butt" transform="matrix(1,0,0,1,200,40)" text-rendering="geometricPrecision" font-family="sans-serif" shape-rendering="geometricPrecision" stroke-miterlimit="1.45">
      <text x="713.2288" xml:space="preserve" y="241.7041" clip-path="url(#clipPath2)" stroke="none">Realization</text>
      <text x="731.9861" xml:space="preserve" y="260.0806" clip-path="url(#clipPath2)" stroke="none">&lt;R0&gt;</text>
    </g>
    <g fill="white" text-rendering="geometricPrecision" shape-rendering="geometricPrecision" transform="matrix(1,0,0,1,200,40)" stroke="white">
      <rect x="508" width="101" height="30" y="18" clip-path="url(#clipPath2)" stroke="none"/>
    </g>
    <g text-rendering="geometricPrecision" stroke-miterlimit="1.45" shape-rendering="geometricPrecision" transform="matrix(1,0,0,1,200,40)" stroke-linecap="butt">
      <rect fill="none" x="508" width="101" height="30" y="18" clip-path="url(#clipPath2)"/>
      <text x="523.8125" xml:space="preserve" y="30.3633" clip-path="url(#clipPath2)" font-family="sans-serif" stroke="none">DataVariable</text>
      <text x="533.1582" xml:space="preserve" y="45.0645" clip-path="url(#clipPath2)" font-family="sans-serif" stroke="none">&lt;RivFile&gt;</text>
    </g>
    <g fill="white" text-rendering="geometricPrecision" shape-rendering="geometricPrecision" transform="matrix(1,0,0,1,200,40)" stroke="white">
      <rect x="495" width="101" height="30" y="-22.3333" clip-path="url(#clipPath2)" stroke="none"/>
    </g>
    <g text-rendering="geometricPrecision" stroke-miterlimit="1.45" stroke-dasharray="6,2" shape-rendering="geometricPrecision" transform="matrix(1,0,0,1,200,40)" stroke-linecap="butt">
      <rect fill="none" x="495" width="101" height="30" y="-22.3333" clip-path="url(#clipPath2)"/>
      <text x="495.8213" y="-9.9701" clip-path="url(#clipPath2)" font-family="sans-serif" stroke-dasharray="none" stroke="none" xml:space="preserve">WorkflowTemplate</text>
      <text x="529.4922" y="4.7311" clip-path="url(#clipPath2)" font-family="sans-serif" stroke-dasharray="none" stroke="none" xml:space="preserve">&lt;W1&gt;</text>
    </g>
    <g fill="white" text-rendering="geometricPrecision" shape-rendering="geometricPrecision" transform="matrix(1,0,0,1,200,40)" stroke="white">
      <rect x="308.75" width="101" height="30" y="487.0833" clip-path="url(#clipPath2)" stroke="none"/>
    </g>
    <g text-rendering="geometricPrecision" stroke-miterlimit="1.45" stroke-dasharray="6,2" shape-rendering="geometricPrecision" transform="matrix(1,0,0,1,200,40)" stroke-linecap="butt">
      <rect fill="none" x="308.75" width="101" height="30" y="487.0833" clip-path="url(#clipPath2)"/>
      <text x="322.2305" y="499.4466" clip-path="url(#clipPath2)" font-family="sans-serif" stroke-dasharray="none" stroke="none" xml:space="preserve">HindcastSpec</text>
      <text x="340.5703" y="514.1478" clip-path="url(#clipPath2)" font-family="sans-serif" stroke-dasharray="none" stroke="none" xml:space="preserve">&lt;HS1&gt;</text>
    </g>
    <g fill="white" text-rendering="geometricPrecision" shape-rendering="geometricPrecision" transform="matrix(1,0,0,1,200,40)" stroke="white">
      <rect x="183" y="70" clip-path="url(#clipPath2)" width="155" rx="1.5" ry="1.5" height="46" stroke="none"/>
    </g>
    <g text-rendering="geometricPrecision" stroke-miterlimit="1.45" shape-rendering="geometricPrecision" transform="matrix(1,0,0,1,200,40)" stroke-linecap="butt">
      <rect x="183" y="70" clip-path="url(#clipPath2)" fill="none" width="155" rx="1.5" ry="1.5" height="46"/>
    </g>
    <g fill="url(#linearGradient5)" text-rendering="geometricPrecision" shape-rendering="geometricPrecision" transform="matrix(1,0,0,1,200,40)" stroke="url(#linearGradient5)">
      <path d="M183.75 73 Q183.75 70.75 186 70.75 L280.75 70.75 Q283 70.75 283 73 Q283 75.25 235.625 90.65 Q188.25 106.05 186 106.05 Q183.75 106.05 183.75 103.8 Z" stroke="none" clip-path="url(#clipPath2)"/>
    </g>
    <g font-size="15px" stroke-linecap="butt" transform="matrix(1,0,0,1,200,40)" text-rendering="geometricPrecision" font-family="sans-serif" shape-rendering="geometricPrecision" stroke-miterlimit="1.45">
      <text x="221.3081" xml:space="preserve" y="89.7041" clip-path="url(#clipPath2)" stroke="none">Intervention</text>
      <text x="245.4854" xml:space="preserve" y="108.0806" clip-path="url(#clipPath2)" stroke="none">&lt;I1&gt;</text>
    </g>
    <g fill="rgb(153,204,255)" text-rendering="geometricPrecision" shape-rendering="geometricPrecision" transform="matrix(1,0,0,1,200,40)" stroke="rgb(153,204,255)">
      <rect x="109" width="303" height="30" y="-2" clip-path="url(#clipPath2)" stroke="none"/>
    </g>
    <g text-rendering="geometricPrecision" stroke-miterlimit="1.45" shape-rendering="geometricPrecision" transform="matrix(1,0,0,1,200,40)" stroke-linecap="butt">
      <rect fill="none" x="109" width="303" height="30" y="-2" clip-path="url(#clipPath2)"/>
      <text x="148.1113" xml:space="preserve" y="17.7139" clip-path="url(#clipPath2)" font-family="sans-serif" stroke="none">What if we made more clouds in the area?</text>
      <rect x="479" y="675" clip-path="url(#clipPath2)" fill="none" width="462" stroke-dasharray="6,2" height="115.3333"/>
    </g>
    <g fill="white" text-rendering="geometricPrecision" shape-rendering="geometricPrecision" transform="matrix(1,0,0,1,200,40)" stroke="white">
      <rect x="492" width="101" height="30" y="745.3333" clip-path="url(#clipPath2)" stroke="none"/>
    </g>
    <g text-rendering="geometricPrecision" stroke-miterlimit="1.45" shape-rendering="geometricPrecision" transform="matrix(1,0,0,1,200,40)" stroke-linecap="butt">
      <rect fill="none" x="492" width="101" height="30" y="745.3333" clip-path="url(#clipPath2)"/>
      <text x="527.4941" xml:space="preserve" y="757.6966" clip-path="url(#clipPath2)" font-family="sans-serif" stroke="none">Entity</text>
      <text x="524.4883" xml:space="preserve" y="772.3978" clip-path="url(#clipPath2)" font-family="sans-serif" stroke="none">&lt;PF2&gt;</text>
    </g>
    <g fill="white" text-rendering="geometricPrecision" shape-rendering="geometricPrecision" transform="matrix(1,0,0,1,200,40)" stroke="white">
      <rect x="648" width="101" height="30" y="745.3333" clip-path="url(#clipPath2)" stroke="none"/>
    </g>
    <g text-rendering="geometricPrecision" stroke-miterlimit="1.45" shape-rendering="geometricPrecision" transform="matrix(1,0,0,1,200,40)" stroke-linecap="butt">
      <rect fill="none" x="648" width="101" height="30" y="745.3333" clip-path="url(#clipPath2)"/>
      <text x="679.498" xml:space="preserve" y="757.6966" clip-path="url(#clipPath2)" font-family="sans-serif" stroke="none">Activity</text>
      <text x="676.4922" xml:space="preserve" y="772.3978" clip-path="url(#clipPath2)" font-family="sans-serif" stroke="none">&lt;PIHM&gt;</text>
    </g>
    <g fill="white" text-rendering="geometricPrecision" shape-rendering="geometricPrecision" transform="matrix(1,0,0,1,200,40)" stroke="white">
      <rect x="811" width="101" height="30" y="745.3333" clip-path="url(#clipPath2)" stroke="none"/>
    </g>
    <g text-rendering="geometricPrecision" stroke-miterlimit="1.45" shape-rendering="geometricPrecision" transform="matrix(1,0,0,1,200,40)" stroke-linecap="butt">
      <rect fill="none" x="811" width="101" height="30" y="745.3333" clip-path="url(#clipPath2)"/>
      <text x="826.8125" xml:space="preserve" y="757.6966" clip-path="url(#clipPath2)" font-family="sans-serif" stroke="none">DataVariable</text>
      <text x="830.8203" xml:space="preserve" y="772.3978" clip-path="url(#clipPath2)" font-family="sans-serif" stroke="none">&lt;RiverOut&gt;</text>
    </g>
    <g fill="white" text-rendering="geometricPrecision" shape-rendering="geometricPrecision" transform="matrix(1,0,0,1,200,40)" stroke="white">
      <rect x="492" width="101" height="30" y="685.3333" clip-path="url(#clipPath2)" stroke="none"/>
    </g>
    <g text-rendering="geometricPrecision" stroke-miterlimit="1.45" shape-rendering="geometricPrecision" transform="matrix(1,0,0,1,200,40)" stroke-linecap="butt">
      <rect fill="none" x="492" width="101" height="30" y="685.3333" clip-path="url(#clipPath2)"/>
      <text x="527.4941" xml:space="preserve" y="697.6966" clip-path="url(#clipPath2)" font-family="sans-serif" stroke="none">Entity</text>
      <text x="528.4902" xml:space="preserve" y="712.3978" clip-path="url(#clipPath2)" font-family="sans-serif" stroke="none">&lt;F1&gt;</text>
    </g>
    <g fill="white" text-rendering="geometricPrecision" shape-rendering="geometricPrecision" transform="matrix(1,0,0,1,200,40)" stroke="white">
      <rect x="479" width="101" height="30" y="645" clip-path="url(#clipPath2)" stroke="none"/>
    </g>
    <g text-rendering="geometricPrecision" stroke-miterlimit="1.45" stroke-dasharray="6,2" shape-rendering="geometricPrecision" transform="matrix(1,0,0,1,200,40)" stroke-linecap="butt">
      <rect fill="none" x="479" width="101" height="30" y="645" clip-path="url(#clipPath2)"/>
      <text x="499.8164" y="657.3633" clip-path="url(#clipPath2)" font-family="sans-serif" stroke-dasharray="none" stroke="none" xml:space="preserve">Realization</text>
      <text x="514.8223" y="672.0645" clip-path="url(#clipPath2)" font-family="sans-serif" stroke-dasharray="none" stroke="none" xml:space="preserve">&lt;R2&gt;</text>
      <rect fill="none" x="479" width="462" height="115.3333" y="476.75" clip-path="url(#clipPath2)"/>
    </g>
    <g fill="white" text-rendering="geometricPrecision" shape-rendering="geometricPrecision" transform="matrix(1,0,0,1,200,40)" stroke="white">
      <rect x="492" width="101" height="30" y="547.0833" clip-path="url(#clipPath2)" stroke="none"/>
    </g>
    <g text-rendering="geometricPrecision" stroke-miterlimit="1.45" shape-rendering="geometricPrecision" transform="matrix(1,0,0,1,200,40)" stroke-linecap="butt">
      <rect fill="none" x="492" width="101" height="30" y="547.0833" clip-path="url(#clipPath2)"/>
      <text x="527.4941" xml:space="preserve" y="559.4466" clip-path="url(#clipPath2)" font-family="sans-serif" stroke="none">Entity</text>
      <text x="524.4883" xml:space="preserve" y="574.1478" clip-path="url(#clipPath2)" font-family="sans-serif" stroke="none">&lt;PF1&gt;</text>
    </g>
    <g fill="white" text-rendering="geometricPrecision" shape-rendering="geometricPrecision" transform="matrix(1,0,0,1,200,40)" stroke="white">
      <rect x="648" width="101" height="30" y="547.0833" clip-path="url(#clipPath2)" stroke="none"/>
    </g>
    <g text-rendering="geometricPrecision" stroke-miterlimit="1.45" shape-rendering="geometricPrecision" transform="matrix(1,0,0,1,200,40)" stroke-linecap="butt">
      <rect fill="none" x="648" width="101" height="30" y="547.0833" clip-path="url(#clipPath2)"/>
      <text x="679.498" xml:space="preserve" y="559.4466" clip-path="url(#clipPath2)" font-family="sans-serif" stroke="none">Activity</text>
      <text x="676.4922" xml:space="preserve" y="574.1478" clip-path="url(#clipPath2)" font-family="sans-serif" stroke="none">&lt;PIHM&gt;</text>
    </g>
    <g fill="white" text-rendering="geometricPrecision" shape-rendering="geometricPrecision" transform="matrix(1,0,0,1,200,40)" stroke="white">
      <rect x="811" width="101" height="30" y="547.0833" clip-path="url(#clipPath2)" stroke="none"/>
    </g>
    <g text-rendering="geometricPrecision" stroke-miterlimit="1.45" shape-rendering="geometricPrecision" transform="matrix(1,0,0,1,200,40)" stroke-linecap="butt">
      <rect fill="none" x="811" width="101" height="30" y="547.0833" clip-path="url(#clipPath2)"/>
      <text x="826.8125" xml:space="preserve" y="559.4466" clip-path="url(#clipPath2)" font-family="sans-serif" stroke="none">DataVariable</text>
      <text x="830.8203" xml:space="preserve" y="574.1478" clip-path="url(#clipPath2)" font-family="sans-serif" stroke="none">&lt;RiverOut&gt;</text>
    </g>
    <g fill="white" text-rendering="geometricPrecision" shape-rendering="geometricPrecision" transform="matrix(1,0,0,1,200,40)" stroke="white">
      <rect x="492" width="101" height="30" y="487.0833" clip-path="url(#clipPath2)" stroke="none"/>
    </g>
    <g text-rendering="geometricPrecision" stroke-miterlimit="1.45" shape-rendering="geometricPrecision" transform="matrix(1,0,0,1,200,40)" stroke-linecap="butt">
      <rect fill="none" x="492" width="101" height="30" y="487.0833" clip-path="url(#clipPath2)"/>
      <text x="527.4941" xml:space="preserve" y="499.4466" clip-path="url(#clipPath2)" font-family="sans-serif" stroke="none">Entity</text>
      <text x="528.4902" xml:space="preserve" y="514.1478" clip-path="url(#clipPath2)" font-family="sans-serif" stroke="none">&lt;F1&gt;</text>
    </g>
    <g fill="white" text-rendering="geometricPrecision" shape-rendering="geometricPrecision" transform="matrix(1,0,0,1,200,40)" stroke="white">
      <rect x="479" width="101" height="30" y="446.75" clip-path="url(#clipPath2)" stroke="none"/>
    </g>
    <g text-rendering="geometricPrecision" stroke-miterlimit="1.45" stroke-dasharray="6,2" shape-rendering="geometricPrecision" transform="matrix(1,0,0,1,200,40)" stroke-linecap="butt">
      <rect fill="none" x="479" width="101" height="30" y="446.75" clip-path="url(#clipPath2)"/>
      <text x="499.8164" y="459.1133" clip-path="url(#clipPath2)" font-family="sans-serif" stroke-dasharray="none" stroke="none" xml:space="preserve">Realization</text>
      <text x="514.8223" y="473.8145" clip-path="url(#clipPath2)" font-family="sans-serif" stroke-dasharray="none" stroke="none" xml:space="preserve">&lt;R1&gt;</text>
    </g>
    <g fill="white" text-rendering="geometricPrecision" shape-rendering="geometricPrecision" transform="matrix(1,0,0,1,200,40)" stroke="white">
      <rect x="308.75" width="101" height="30" y="679" clip-path="url(#clipPath2)" stroke="none"/>
    </g>
    <g text-rendering="geometricPrecision" stroke-miterlimit="1.45" stroke-dasharray="6,2" shape-rendering="geometricPrecision" transform="matrix(1,0,0,1,200,40)" stroke-linecap="butt">
      <rect fill="none" x="308.75" width="101" height="30" y="679" clip-path="url(#clipPath2)"/>
      <text x="322.2305" y="691.3633" clip-path="url(#clipPath2)" font-family="sans-serif" stroke-dasharray="none" stroke="none" xml:space="preserve">HindcastSpec</text>
      <text x="340.5703" y="706.0645" clip-path="url(#clipPath2)" font-family="sans-serif" stroke-dasharray="none" stroke="none" xml:space="preserve">&lt;HS2&gt;</text>
    </g>
    <g fill="white" text-rendering="geometricPrecision" shape-rendering="geometricPrecision" transform="matrix(1,0,0,1,200,40)" stroke="white">
      <rect x="-52" y="487.0833" clip-path="url(#clipPath2)" width="186.25" rx="1.5" ry="1.5" height="46" stroke="none"/>
    </g>
    <g text-rendering="geometricPrecision" stroke-miterlimit="1.45" shape-rendering="geometricPrecision" transform="matrix(1,0,0,1,200,40)" stroke-linecap="butt">
      <rect x="-52" y="487.0833" clip-path="url(#clipPath2)" fill="none" width="186.25" rx="1.5" ry="1.5" height="46"/>
    </g>
    <g fill="url(#linearGradient6)" text-rendering="geometricPrecision" shape-rendering="geometricPrecision" transform="matrix(1,0,0,1,200,40)" stroke="url(#linearGradient6)">
      <path d="M-51.25 490.0833 Q-51.25 487.8333 -49 487.8333 L66.0625 487.8333 Q68.3125 487.8333 68.3125 490.0833 Q68.3125 492.3333 10.7812 507.7333 Q-46.75 523.1334 -49 523.1334 Q-51.25 523.1334 -51.25 520.8834 Z" stroke="none" clip-path="url(#clipPath2)"/>
    </g>
    <g font-size="15px" stroke-linecap="butt" transform="matrix(1,0,0,1,200,40)" text-rendering="geometricPrecision" font-family="sans-serif" shape-rendering="geometricPrecision" stroke-miterlimit="1.45">
      <text x="-40.5913" xml:space="preserve" y="506.7874" clip-path="url(#clipPath2)" stroke="none">InterventionSpecification</text>
      <text x="21.1079" xml:space="preserve" y="525.1639" clip-path="url(#clipPath2)" stroke="none">&lt;IS1&gt;</text>
    </g>
    <g fill="white" text-rendering="geometricPrecision" shape-rendering="geometricPrecision" transform="matrix(1,0,0,1,200,40)" stroke="white">
      <rect x="-52" y="737.3333" clip-path="url(#clipPath2)" width="186.25" rx="1.5" ry="1.5" height="46" stroke="none"/>
    </g>
    <g text-rendering="geometricPrecision" stroke-miterlimit="1.45" shape-rendering="geometricPrecision" transform="matrix(1,0,0,1,200,40)" stroke-linecap="butt">
      <rect x="-52" y="737.3333" clip-path="url(#clipPath2)" fill="none" width="186.25" rx="1.5" ry="1.5" height="46"/>
    </g>
    <g fill="url(#linearGradient7)" text-rendering="geometricPrecision" shape-rendering="geometricPrecision" transform="matrix(1,0,0,1,200,40)" stroke="url(#linearGradient7)">
      <path d="M-51.25 740.3333 Q-51.25 738.0833 -49 738.0833 L66.0625 738.0833 Q68.3125 738.0833 68.3125 740.3333 Q68.3125 742.5833 10.7812 757.9833 Q-46.75 773.3833 -49 773.3833 Q-51.25 773.3833 -51.25 771.1333 Z" stroke="none" clip-path="url(#clipPath2)"/>
    </g>
    <g font-size="15px" stroke-linecap="butt" transform="matrix(1,0,0,1,200,40)" text-rendering="geometricPrecision" font-family="sans-serif" shape-rendering="geometricPrecision" stroke-miterlimit="1.45">
      <text x="-40.5913" xml:space="preserve" y="757.0374" clip-path="url(#clipPath2)" stroke="none">InterventionSpecification</text>
      <text x="21.1079" xml:space="preserve" y="775.4139" clip-path="url(#clipPath2)" stroke="none">&lt;IS2&gt;</text>
    </g>
    <g text-rendering="geometricPrecision" stroke-miterlimit="1.45" shape-rendering="geometricPrecision" transform="matrix(1,0,0,1,200,40)" stroke-linecap="butt">
      <path fill="none" d="M183.0087 329.6283 L52.7175 374.4002" clip-path="url(#clipPath2)"/>
      <path d="M45.1517 377 L58.1252 377.8289 L53.6632 374.0752 L54.8755 368.3717 Z" clip-path="url(#clipPath2)" stroke="none"/>
      <text x="27.6719" xml:space="preserve" y="338.1232" clip-path="url(#clipPath2)" font-family="sans-serif" stroke="none">dcterms:description</text>
      <path fill="none" d="M183.0061 303 L109 303" clip-path="url(#clipPath2)"/>
      <path d="M101 303 L113 308 L110 303 L113 298 Z" clip-path="url(#clipPath2)" stroke="none"/>
      <text x="95.4688" xml:space="preserve" y="277.7139" clip-path="url(#clipPath2)" font-family="sans-serif" stroke="none">hasRegion</text>
      <path fill="none" d="M338.0193 286.8718 L473.1819 258.7508" clip-path="url(#clipPath2)"/>
      <path d="M481.0142 257.1212 L468.2473 254.6704 L472.2029 258.9545 L470.2842 264.4607 Z" clip-path="url(#clipPath2)" stroke="none"/>
      <text x="380.8684" xml:space="preserve" y="298.6716" clip-path="url(#clipPath2)" font-family="sans-serif" stroke="none">hasEnsembleSpecification</text>
      <path fill="none" d="M588.0456 210.0139 L665.4936 128.7898" clip-path="url(#clipPath2)"/>
      <path d="M671.0142 123 L659.1146 128.2344 L664.8035 129.5136 L666.3519 135.1352 Z" clip-path="url(#clipPath2)" stroke="none"/>
      <text x="608.6076" xml:space="preserve" y="174.3898" clip-path="url(#clipPath2)" font-family="sans-serif" stroke="none">hasWorkflowTemplate</text>
      <path fill="none" d="M558.5 210.0342 L558.5 116" clip-path="url(#clipPath2)"/>
      <path d="M558.5 108 L553.5 120 L558.5 117 L563.5 120 Z" clip-path="url(#clipPath2)" stroke="none"/>
      <text x="560.1523" xml:space="preserve" y="163.7139" clip-path="url(#clipPath2)" font-family="sans-serif" stroke="none">hasTheme</text>
      <path fill="none" d="M664 93 L617 93" clip-path="url(#clipPath2)"/>
      <path d="M609 93 L621 98 L618 93 L621 88 Z" clip-path="url(#clipPath2)" stroke="none"/>
      <text x="582.9876" xml:space="preserve" y="74.3805" clip-path="url(#clipPath2)" font-family="sans-serif" stroke="none">opmw:uses</text>
      <path fill="none" d="M827 93 L773 93" clip-path="url(#clipPath2)"/>
      <path d="M765 93 L777 98 L774 93 L777 88 Z" clip-path="url(#clipPath2)" stroke="none"/>
      <text x="738.6396" xml:space="preserve" y="67.7139" clip-path="url(#clipPath2)" font-family="sans-serif" stroke="none">opmw:isGeneratedBy</text>
      <path fill="none" d="M338.0193 321.9896 L473.2439 355.1151" clip-path="url(#clipPath2)"/>
      <path d="M481.0142 357.0186 L470.5485 349.307 L472.2726 354.8772 L468.1691 359.0198 Z" clip-path="url(#clipPath2)" stroke="none"/>
      <text x="347.8993" xml:space="preserve" y="368.9164" clip-path="url(#clipPath2)" font-family="sans-serif" stroke="none">hasEnsemble</text>
      <path fill="none" d="M558.5 344.9856 L558.5 279.9977" clip-path="url(#clipPath2)"/>
      <path d="M558.5 271.9977 L553.5 283.9977 L558.5 280.9977 L563.5 283.9977 Z" clip-path="url(#clipPath2)" stroke="none"/>
      <text x="499.8184" xml:space="preserve" y="335.3633" clip-path="url(#clipPath2)" font-family="sans-serif" stroke="none">prov:wasDerivedFrom</text>
      <path fill="none" d="M628.0731 345.0021 L669.0258 326.7558" clip-path="url(#clipPath2)"/>
      <path d="M676.3333 323.5 L663.3372 323.8166 L668.1124 327.1628 L667.407 332.9509 Z" clip-path="url(#clipPath2)" stroke="none"/>
      <text x="647.9691" xml:space="preserve" y="347.7139" clip-path="url(#clipPath2)" font-family="sans-serif" stroke="none">prov:wasGeneratedBy</text>
      <path fill="none" d="M676.3333 293.5 L635.3971 275.2611" clip-path="url(#clipPath2)"/>
      <path d="M628.0896 272.0053 L637.016 281.4562 L636.3105 275.6681 L641.0858 272.3218 Z" clip-path="url(#clipPath2)" stroke="none"/>
      <text x="651.9837" xml:space="preserve" y="284.7139" clip-path="url(#clipPath2)" font-family="sans-serif" stroke="none">prov:used</text>
      <path fill="none" d="M636.0147 245 L689.3326 245" clip-path="url(#clipPath2)"/>
      <path d="M697.3326 245 L685.3326 240 L688.3326 245 L685.3326 250 Z" clip-path="url(#clipPath2)" stroke="none"/>
      <text x="643.9769" xml:space="preserve" y="225.7139" clip-path="url(#clipPath2)" font-family="sans-serif" stroke="none">hasReference</text>
      <path fill="none" d="M636.0083 376 L799.8333 376 L799.8333 271.5215" clip-path="url(#clipPath2)"/>
      <path d="M799.8333 263.5215 L794.8333 275.5215 L799.8333 272.5215 L804.8333 275.5215 Z" clip-path="url(#clipPath2)" stroke="none"/>
      <text x="696.2269" xml:space="preserve" y="388.7139" clip-path="url(#clipPath2)" font-family="sans-serif" stroke="none">hasReference</text>
      <path fill="none" d="M803.3367 245 L823.3333 245 L823.3333 131.0322" clip-path="url(#clipPath2)"/>
      <path d="M823.3333 123.0322 L818.3333 135.0322 L823.3333 132.0322 L828.3333 135.0322 Z" clip-path="url(#clipPath2)" stroke="none"/>
      <path fill="none" d="M675.5 78 L604.9667 50.8718" clip-path="url(#clipPath2)"/>
      <path d="M597.5 48 L606.9052 56.9745 L605.9001 51.2308 L610.4951 47.641 Z" clip-path="url(#clipPath2)" stroke="none"/>
      <path fill="none" d="M260.5 333.961 L260.5 502.0833 L300.7029 502.0833" clip-path="url(#clipPath2)"/>
      <path d="M308.7029 502.0833 L296.7029 497.0833 L299.7029 502.0833 L296.7029 507.0833 Z" clip-path="url(#clipPath2)" stroke="none"/>
      <text x="204.1328" xml:space="preserve" y="473.9837" clip-path="url(#clipPath2)" font-family="sans-serif" stroke="none">hasDataSpecification</text>
      <path fill="none" d="M260.5 272.0076 L260.5 124.0315" clip-path="url(#clipPath2)"/>
      <path d="M260.5 116.0315 L255.5 128.0315 L260.5 125.0315 L265.5 128.0315 Z" clip-path="url(#clipPath2)" stroke="none"/>
      <text x="189.4727" xml:space="preserve" y="198.7139" clip-path="url(#clipPath2)" font-family="sans-serif" stroke="none">hasIntervention</text>
      <path fill="none" d="M338.0193 93 L500 93" clip-path="url(#clipPath2)"/>
      <path d="M508 93 L496 88 L499 93 L496 98 Z" clip-path="url(#clipPath2)" stroke="none"/>
      <text x="398.3456" xml:space="preserve" y="114.4539" clip-path="url(#clipPath2)" font-family="sans-serif" stroke="none">hasPart</text>
      <path fill="none" d="M260.5 69.9922 L260.5 36" clip-path="url(#clipPath2)"/>
      <path d="M260.5 28 L255.5 40 L260.5 37 L265.5 40 Z" clip-path="url(#clipPath2)" stroke="none"/>
      <text x="238.4805" xml:space="preserve" y="53.7139" clip-path="url(#clipPath2)" font-family="sans-serif" stroke="none">dcterms:description</text>
      <path fill="none" d="M480.9929 376 L450.3333 376 L450.3333 732.6667 L470.972 732.6667" clip-path="url(#clipPath2)"/>
      <path d="M478.972 732.6667 L466.972 727.6667 L469.972 732.6667 L466.972 737.6667 Z" clip-path="url(#clipPath2)" stroke="none"/>
      <text x="410.9759" xml:space="preserve" y="640.1078" clip-path="url(#clipPath2)" font-family="sans-serif" stroke="none">hasRealization</text>
      <path fill="none" d="M940.9923 710.99 L994.0233 710.99 L994.0233 108.49 L965.0185 108.49" clip-path="url(#clipPath2)"/>
      <path d="M957.0185 108.49 L969.0185 113.49 L966.0185 108.49 L969.0185 103.49 Z" clip-path="url(#clipPath2)" stroke="none"/>
      <text x="865.0712" xml:space="preserve" y="271.1478" clip-path="url(#clipPath2)" font-family="sans-serif" stroke="none">opmw:correspondsToTemplate</text>
      <path fill="none" d="M648 760.3333 L601 760.3333" clip-path="url(#clipPath2)"/>
      <path d="M593 760.3333 L605 765.3333 L602 760.3333 L605 755.3333 Z" clip-path="url(#clipPath2)" stroke="none"/>
      <text x="570.9837" xml:space="preserve" y="741.7139" clip-path="url(#clipPath2)" font-family="sans-serif" stroke="none">prov:used</text>
      <path fill="none" d="M811 760.3333 L757 760.3333" clip-path="url(#clipPath2)"/>
      <path d="M749 760.3333 L761 765.3333 L758 760.3333 L761 755.3333 Z" clip-path="url(#clipPath2)" stroke="none"/>
      <text x="720.6357" xml:space="preserve" y="735.0472" clip-path="url(#clipPath2)" font-family="sans-serif" stroke="none">prov:wasGeneratedBy</text>
      <path fill="none" d="M659.5 745.3333 L588.9667 718.2051" clip-path="url(#clipPath2)"/>
      <path d="M581.5 715.3333 L590.9053 724.3078 L589.9001 718.5641 L594.4951 714.9744 Z" clip-path="url(#clipPath2)" stroke="none"/>
      <path fill="none" d="M889.8502 476.7179 L889.8502 130.9961" clip-path="url(#clipPath2)"/>
      <path d="M889.8502 122.9961 L884.8502 134.9961 L889.8502 131.9961 L894.8502 134.9961 Z" clip-path="url(#clipPath2)" stroke="none"/>
      <path fill="none" d="M648 562.0833 L601 562.0833" clip-path="url(#clipPath2)"/>
      <path d="M593 562.0833 L605 567.0833 L602 562.0833 L605 557.0833 Z" clip-path="url(#clipPath2)" stroke="none"/>
      <text x="570.9837" xml:space="preserve" y="543.4639" clip-path="url(#clipPath2)" font-family="sans-serif" stroke="none">prov:used</text>
      <path fill="none" d="M811 562.0833 L757 562.0833" clip-path="url(#clipPath2)"/>
      <path d="M749 562.0833 L761 567.0833 L758 562.0833 L761 557.0833 Z" clip-path="url(#clipPath2)" stroke="none"/>
      <text x="720.6357" xml:space="preserve" y="536.7972" clip-path="url(#clipPath2)" font-family="sans-serif" stroke="none">prov:wasGeneratedBy</text>
      <path fill="none" d="M659.5 547.0833 L588.9667 519.9551" clip-path="url(#clipPath2)"/>
      <path d="M581.5 517.0833 L590.9053 526.0578 L589.9001 520.3141 L594.4951 516.7244 Z" clip-path="url(#clipPath2)" stroke="none"/>
      <path fill="none" d="M558.5 407.0271 L558.5 438.7301" clip-path="url(#clipPath2)"/>
      <path d="M558.5 446.7301 L563.5 434.7301 L558.5 437.7301 L553.5 434.7301 Z" clip-path="url(#clipPath2)" stroke="none"/>
      <text x="489.1426" xml:space="preserve" y="431.5889" clip-path="url(#clipPath2)" font-family="sans-serif" stroke="none">hasRealization</text>
      <path fill="none" d="M260.5 333.9764 L260.5 694 L300.7029 694" clip-path="url(#clipPath2)"/>
      <path d="M308.7029 694 L296.7029 689 L299.7029 694 L296.7029 699 Z" clip-path="url(#clipPath2)" stroke="none"/>
      <path fill="none" d="M182.9775 93 L-180.9767 93 L-180.9767 510.0833 L-60.0048 510.0833" clip-path="url(#clipPath2)"/>
      <path d="M-52.0048 510.0833 L-64.0048 505.0833 L-61.0048 510.0833 L-64.0048 515.0834 Z" clip-path="url(#clipPath2)" stroke="none"/>
      <path fill="none" d="M41.125 533.0618 L41.125 562.0833 L484 562.0833" clip-path="url(#clipPath2)"/>
      <path d="M492 562.0833 L480 557.0833 L483 562.0833 L480 567.0833 Z" clip-path="url(#clipPath2)" stroke="none"/>
      <text x="-9.5527" xml:space="preserve" y="559.4725" clip-path="url(#clipPath2)" font-family="sans-serif" stroke="none">hasPart</text>
      <path fill="none" d="M182.9895 93 L-184.31 93 L-184.31 760.3333 L-60.0265 760.3333" clip-path="url(#clipPath2)"/>
      <path d="M-52.0265 760.3333 L-64.0266 755.3333 L-61.0265 760.3333 L-64.0266 765.3333 Z" clip-path="url(#clipPath2)" stroke="none"/>
      <text x="-126.8569" xml:space="preserve" y="80.2872" clip-path="url(#clipPath2)" font-family="sans-serif" stroke="none">hasInterventionSpecification</text>
      <path fill="none" d="M134.2454 760.3333 L484 760.3333" clip-path="url(#clipPath2)"/>
      <path d="M492 760.3333 L480 755.3333 L483 760.3333 L480 765.3333 Z" clip-path="url(#clipPath2)" stroke="none"/>
      <text x="145.0123" xml:space="preserve" y="751.5372" clip-path="url(#clipPath2)" font-family="sans-serif" stroke="none">hasPart</text>
    </g>
  </g>
</svg>
